<svg width="96" height="42" viewBox="0 0 96 42" fill="none" xmlns="http://www.w3.org/2000/svg">
<path d="M76.854 0.10544C72.1799 0.456903 66.3731 1.26527 61.8248 2.19665C57.0248 3.18075 48.4136 5.4477 45.3934 6.51966C44.6023 6.80084 43.6675 6.94142 41.9776 7.02929C38.3102 7.2226 36.1529 8.10126 33.7439 10.3331C31.3349 12.6 29.7169 16.8351 30.1484 19.805C30.7596 23.882 33.7619 25.9381 38.6338 25.6042C41.672 25.3933 43.9372 24.3741 46.0226 22.318C47.6046 20.754 48.3776 19.5414 49.1327 17.4502C49.6181 16.0795 49.69 15.6753 49.69 13.9707C49.69 12.354 49.6181 11.8619 49.2765 11.0008C48.7372 9.66527 47.5327 8.4 46.2203 7.78494L45.2136 7.31046L46.5619 6.90628C50.8405 5.60586 59.5237 3.72552 64.6293 3.00502C71.5327 2.02092 79.4248 1.75732 83.9552 2.35481C89.4563 3.07531 92.89 4.6569 94.0406 6.97657C94.5799 8.08368 94.454 9.87615 93.7349 11.282C93.4653 11.8444 93.1597 12.3013 93.0698 12.3013C92.9979 12.3013 92.6563 12.108 92.3327 11.8619C91.0383 10.8954 88.8271 10.6142 87.1192 11.1766C85.9687 11.5632 84.4765 12.9339 83.9372 14.0937C83.308 15.4644 83.3439 17.3096 83.9911 18.6979C84.2788 19.2603 84.4406 19.805 84.3687 19.9105C84.3147 20.0159 84.3507 20.0335 84.4765 19.9632C84.5844 19.8929 85.0158 20.1213 85.5012 20.5431C86.49 21.3866 87.6226 21.7908 89.0788 21.7908C90.6248 21.7908 91.7035 21.3866 92.8361 20.3674C94.1305 19.2075 94.6338 18.0828 94.6518 16.3431C94.6518 15.2536 94.5619 14.8494 94.1664 14.0586C93.8967 13.5314 93.5732 12.969 93.4653 12.8109C93.2855 12.5649 93.3574 12.3715 93.8788 11.6686C95.0653 10.0695 96.0001 7.89038 96.0001 6.66025C96.0001 5.65858 95.4248 4.35816 94.6338 3.51464C93.2136 2.03849 90.8046 1.03682 87.1012 0.421757C85.5372 0.158159 78.8495 -0.0527191 76.854 0.10544ZM43.272 11.5632C45.3035 12.5824 45.717 15.3414 44.2608 18.241C43.272 20.2092 41.3844 21.5448 39.3169 21.7381C36.5664 21.9841 34.8945 20.5782 34.8765 17.995C34.8765 14.99 36.836 12.1782 39.5327 11.3347C40.6293 10.9833 42.3192 11.0887 43.272 11.5632ZM92.3507 13.4787C92.3147 13.6544 91.8473 15.3414 91.326 17.2218C90.8046 19.1021 90.3372 20.7188 90.2653 20.7891C90.1934 20.8594 88.8451 19.6469 87.299 18.1004C85.7349 16.5364 84.5125 15.2008 84.5844 15.1481C84.7282 15.0075 91.6316 13.2151 92.117 13.1975C92.3507 13.1799 92.4226 13.2678 92.3507 13.4787Z" fill="#339AF0"/>
<path d="M59.6855 7.11716C59.1461 7.25775 57.9416 7.7498 57.0068 8.18913C53.0877 10.0695 50.6248 13.9707 50.6068 18.2762C50.6068 22.9506 53.3933 25.8326 57.8877 25.8326C60.1529 25.8151 62.6697 25.077 64.5754 23.8293C65.8338 23.0209 68.1169 20.9297 67.8652 20.8067C67.7754 20.7716 67.0023 20.2971 66.1754 19.7875L64.6652 18.8385L63.5327 19.7875C62.9034 20.2971 61.8787 20.9824 61.2675 21.2988C60.3147 21.7732 59.9372 21.8611 58.8405 21.8787C57.672 21.8787 57.4922 21.8259 56.863 21.3339C56.4855 21.0527 55.9461 20.3674 55.6765 19.8402C55.2091 18.9615 55.1731 18.7682 55.227 17.1339C55.281 15.6402 55.3529 15.236 55.7843 14.3749C56.4315 13.0745 57.5102 12.0201 58.7506 11.4577C59.6136 11.0711 60.027 10.9833 61.3933 10.9833C62.7237 10.9833 63.1372 11.0536 63.7664 11.3699C64.6113 11.8092 65.3484 12.6703 65.5282 13.3908C65.6001 13.672 65.7259 13.8829 65.7978 13.8829C65.8697 13.8829 66.7866 13.4962 67.8293 13.0042L69.7349 12.1431L69.4473 11.4577C68.7821 9.80587 66.9304 8.04854 65.0787 7.36319C63.7843 6.87114 61.0697 6.74813 59.6855 7.11716Z" fill="#339AF0"/>
<path d="M26.5888 9.75314C25.6 11.0536 24.7551 12.1255 24.7191 12.1255C24.6832 12.1255 24.3056 11.0887 23.9101 9.84101L23.1731 7.55649H20.4764C17.9596 7.55649 17.7618 7.57406 17.8697 7.85523C17.9416 8.03096 18.7326 9.98159 19.6495 12.1958C21.0337 15.5699 21.2674 16.2377 21.0337 16.3782C20.8899 16.4661 19.5596 17.2042 18.0854 18.0126C12.6742 21.0176 8.23374 24.128 5.06969 27.1331C1.11464 30.8937 -0.413453 33.9515 0.359581 36.6402C0.629244 37.6067 1.81576 38.9598 2.94835 39.61C7.28093 42.0879 16.5933 42.5096 28.2248 40.7523C43.6135 38.4326 62.6517 32.1063 76.3146 24.7782C79.2989 23.1967 83.5955 20.631 83.5955 20.4377C83.5955 20.4025 83.3259 20.508 83.0203 20.7013C81.8158 21.4042 78.9573 22.9155 77.3933 23.6711C75.9731 24.3389 75.7753 24.4092 75.7214 24.128C75.7034 23.9523 76.2248 21.0879 76.9079 17.749L78.1304 11.6862L79.9461 11.6335L81.7798 11.5808L81.9776 10.5791C82.1034 10.0343 82.3012 9.08536 82.427 8.47029L82.6607 7.38076H77.0158C73.9057 7.38076 71.3708 7.4159 71.3708 7.46862C71.3708 7.52134 71.1731 8.47029 70.9214 9.59498C70.6697 10.7197 70.4719 11.651 70.4719 11.7038C70.4719 11.7389 71.245 11.7741 72.1798 11.7741C73.1146 11.7741 73.8877 11.7916 73.8877 11.8268C73.8877 11.8444 73.2405 14.8494 72.4495 18.5046C71.6585 22.1598 71.0113 25.2176 71.0113 25.3054C71.0113 25.3933 71.5146 25.4812 72.1439 25.5163L73.2585 25.569L70.0225 26.8343C55.1551 32.6335 38.5438 35.9372 25.7978 35.6209C18.3191 35.4452 13.9506 34.2854 11.7034 31.8954C10.1933 30.2611 10.0495 28.5741 11.254 26.2193C12.2787 24.1808 15.4967 21.0703 18.9663 18.8034C19.4697 18.4695 19.7753 18.3289 19.6674 18.4695C19.5596 18.5925 18.3191 20.1038 16.8989 21.7908C15.4787 23.4778 14.2382 24.9716 14.1483 25.077C14.0225 25.2527 14.5618 25.3054 16.7731 25.3054H19.5776L21.3214 22.9155L23.0652 20.508L23.8562 22.9155L24.6472 25.3054H27.236C28.6742 25.3054 29.8427 25.2703 29.8427 25.2176C29.8427 25.1473 29.0697 23.1791 28.1349 20.8067C27.2 18.4519 26.427 16.4661 26.427 16.4134C26.427 16.3782 28.027 14.4628 29.9865 12.1607C31.9281 9.87615 33.636 7.85523 33.7798 7.6795C34.0135 7.39833 33.8517 7.38076 31.209 7.38076H28.4045L26.5888 9.75314Z" fill="#339AF0"/>
</svg>
